<?xml version="1.0" standalone="no"?>
<!DOCTYPE svg PUBLIC "-//W3C//DTD SVG 20010904//EN"
 "http://www.w3.org/TR/2001/REC-SVG-20010904/DTD/svg10.dtd">
<svg version="1.0" xmlns="http://www.w3.org/2000/svg"
 viewBox="0 0 2600.000000 2600.000000"
 preserveAspectRatio="xMidYMid meet">
<metadata>
Created by potrace 1.15, written by Peter Selinger 2001-2017
</metadata>
<g transform="translate(0.000000,2600.000000) scale(0.100000,-0.100000)"
fill="#000000" stroke="none">
<path d="M12740 23290 c0 -6 58 -335 130 -732 71 -397 126 -725 122 -729 -4
-4 -1054 -509 -2333 -1123 l-2325 -1116 -916 0 c-1013 0 -998 1 -1195 -65
-442 -148 -786 -508 -958 -1005 -30 -87 -158 -572 -152 -576 1 0 92 -27 202
-58 244 -70 307 -96 460 -187 884 -528 1949 -1757 2720 -3139 376 -675 750
-1548 824 -1922 34 -173 62 -240 126 -303 90 -90 180 -114 428 -115 l147 0 0
-1190 0 -1190 -165 0 c-90 0 -188 -5 -217 -11 -112 -24 -212 -99 -262 -196
-37 -75 -1327 -5762 -1327 -5853 0 -151 84 -272 236 -342 l50 -23 5280 -3
c3498 -1 5296 1 5327 8 112 23 205 92 255 187 37 70 57 161 49 217 -17 103
-1301 5737 -1319 5786 -25 67 -110 155 -180 188 -72 34 -133 42 -308 42 l-159
0 0 1189 0 1189 188 4 c161 4 195 8 243 27 115 44 194 126 227 236 11 33 210
1042 443 2242 l424 2182 1085 3 1085 3 390 -236 c270 -163 389 -240 387 -251
-1 -8 -446 -1416 -988 -3129 -600 -1897 -992 -3148 -1001 -3201 -14 -79 -14
-97 0 -178 54 -323 314 -497 605 -405 145 46 265 150 341 295 22 41 727 1535
1568 3320 l1528 3245 0 640 0 639 -1450 838 -1449 838 -841 0 -840 1 -30 61
c-17 34 -50 78 -76 102 -37 33 -502 262 -2310 1140 -1245 604 -2267 1101
-2270 1105 -3 3 56 350 132 771 76 421 139 771 139 778 0 9 -214 12 -1035 12
-688 0 -1035 -3 -1035 -10z m1730 -2865 l743 -830 -766 -3 c-421 -1 -1112 -1
-1537 0 l-771 3 768 858 767 857 27 -27 c15 -16 361 -401 769 -858z m-2256
103 c-75 -84 -295 -330 -488 -545 l-351 -393 -644 0 c-354 0 -642 2 -640 5 5
4 2251 1085 2257 1085 2 0 -59 -69 -134 -152z m3885 -387 c588 -286 1083 -527
1098 -535 25 -14 -32 -15 -597 -15 l-625 0 -337 377 c-185 207 -400 448 -478
535 -78 86 -139 157 -136 157 3 0 486 -234 1075 -519z m-7985 -1318 c3 -10
142 -727 311 -1593 168 -866 308 -1581 310 -1587 11 -33 -14 1 -134 180 -723
1076 -1619 2017 -2351 2469 -58 36 -130 78 -159 92 -40 21 -51 31 -46 44 40
109 199 277 322 340 140 73 108 70 970 71 727 1 772 0 777 -16z m3060 -25 c4
-24 132 -1321 286 -2883 154 -1562 283 -2861 286 -2887 l6 -48 -865 0 -865 0
-5 23 c-3 12 -258 1318 -566 2902 -309 1584 -564 2892 -567 2908 l-6 27 1146
0 1145 0 5 -42z m4436 33 c0 -17 -569 -5766 -575 -5808 l-6 -43 -1354 0 -1353
0 -6 48 c-4 26 -132 1323 -286 2882 -154 1559 -282 2856 -286 2883 l-6 47
1936 0 c1167 0 1936 -4 1936 -9z m2800 -3 c0 -7 -256 -1325 -569 -2928 l-568
-2915 -837 -3 -837 -2 6 42 c5 40 575 5793 575 5811 0 4 502 7 1115 7 886 0
1115 -3 1115 -12z m-1890 -7798 l0 -1190 -2875 0 -2875 0 0 1190 0 1190 2875
0 2875 0 0 -1190z m-4780 -1965 c0 -8 -126 -1107 -280 -2442 -154 -1334 -280
-2432 -280 -2439 0 -12 -189 -14 -1140 -14 -817 0 -1140 3 -1140 11 0 10 1096
4845 1106 4882 5 16 55 17 870 17 764 0 864 -2 864 -15z m3300 5 c0 -6 126
-1102 280 -2437 154 -1334 280 -2434 280 -2444 0 -18 -59 -19 -1925 -19 -1494
0 -1925 3 -1925 12 0 7 126 1104 280 2438 154 1334 280 2433 280 2443 0 16 80
17 1365 17 913 0 1365 -3 1365 -10z m2786 -2385 c299 -1314 549 -2418 557
-2452 l14 -63 -1111 0 -1111 0 -279 2418 c-154 1329 -281 2434 -284 2455 l-5
37 839 -2 838 -3 542 -2390z"/>
</g>
</svg>
